<?xml version="1.0" standalone="no"?>
<!DOCTYPE svg PUBLIC "-//W3C//DTD SVG 1.1//EN" "http://www.w3.org/Graphics/SVG/1.1/DTD/svg11.dtd" >
<!--
2013-9-30: Created.
-->
<svg>
<metadata>
Created by iconfont
</metadata>
<defs>

<font id="iconfont" horiz-adv-x="1024" >
  <font-face
    font-family="iconfont"
    font-weight="500"
    font-stretch="normal"
    units-per-em="1024"
    ascent="896"
    descent="-128"
  />
    <missing-glyph />
    
    <glyph glyph-name="jia" unicode="&#58927;" d="M976.113363 408.407899L536.429389 408.407899 536.429389 848.081641 487.573681 848.081641 487.573681 408.407899 47.886637 408.407899 47.886637 359.559355 487.573681 359.559355 487.573681-80.08061699999996 536.429389-80.08061699999996 536.429389 359.559355 976.113363 359.559355Z"  horiz-adv-x="1024" />

    
    <glyph glyph-name="jianh" unicode="&#59046;" d="M995.755608 360.09039700000005H28.244392a23.892537 23.892537 0 1 0 0 47.785074h967.511216a23.892537 23.892537 0 1 0 0-47.785074z"  horiz-adv-x="1024" />

    
    <glyph glyph-name="icon-test" unicode="&#58881;" d="M887.904 597.792c-12.864 12.064-33.152 11.488-45.216-1.408L415.936 142.016l-233.12 229.696c-12.608 12.416-32.864 12.288-45.28-0.32-12.416-12.576-12.256-32.864 0.352-45.248l256.48-252.672c0.096-0.096 0.224-0.128 0.32-0.224s0.128-0.224 0.224-0.32c2.016-1.92 4.448-3.008 6.784-4.288 1.152-0.672 2.144-1.664 3.36-2.144 3.776-1.472 7.776-2.24 11.744-2.24 4.192 0 8.384 0.832 12.288 2.496 1.312 0.544 2.336 1.664 3.552 2.368 2.4 1.408 4.896 2.592 6.944 4.672 0.096 0.096 0.128 0.256 0.224 0.352 0.064 0.096 0.192 0.128 0.288 0.224L889.28 552.576c12.16 12.832 11.488 33.088-1.376 45.216z"  horiz-adv-x="1024" />

    
    <glyph glyph-name="jiantou-up" unicode="&#58882;" d="M500.254 670.59c-2.283-1.103-4.429-2.577-6.322-4.47l-439.236-439.237c-9.069-9.069-9.069-23.771 0-32.839l69.785-69.785c9.069-9.069 23.771-9.069 32.839 0l353.032 353.030 353.031-353.031c9.069-9.069 23.772-9.069 32.841 0l69.785 69.785c9.069 9.069 9.068 23.772-0.001 32.84l-369.448 369.449c-0.001 0.001-0.002 0.001-0.002 0.002l-69.785 69.785c-0.567 0.567-1.156 1.098-1.764 1.594-7.089 5.784-16.79 6.727-24.754 2.877z"  horiz-adv-x="1024" />

    
    <glyph glyph-name="lianxiren" unicode="&#58898;" d="M825.344-88.586667 84.885333-88.586667 45.866667-63.648l-2.368 7.210667c-1.173333 3.541333-11.093333 35.498667-0.768 68.672l1.045333 3.370667 2.090667 2.901333c24.106667 33.045333 84.394667 66.133333 148.202667 101.184 58.453333 32.106667 146.752 80.597333 147.306667 106.432l0.064 24.384c-55.786667 53.888-86.378667 127.296-86.378667 207.808 0 124.544 23.765333 251.882667 200.085333 251.904 176.32-0.021333 200.064-127.36 200.064-251.904 0-80.533333-30.634667-153.941333-86.378667-207.765333l0.085333-24.874667c0.533333-25.344 88.853333-73.877333 147.285333-105.984 63.786667-35.072 124.074667-68.138667 148.16-101.184l2.112-2.901333 1.066667-3.349333c10.282667-33.194667 0.384-65.152-0.789333-68.693333l-2.368-7.210667L825.344-88.586667zM97.365333-45.92l715.52 0 14.954667 9.536c1.408 7.466667 2.88 20.010667-0.128 32.490667-20.629333 24.917333-77.205333 56.021333-132.032 86.144-90.325333 49.621333-168.384 92.48-169.408 142.933333l-0.149333 44.010667 7.061333 6.378667c51.157333 46.186667 79.381333 111.082667 79.381333 182.698667 0 132.501333-25.749333 209.216-157.397333 209.237333-131.648-0.021333-157.418667-76.736-157.418667-209.237333 0-71.637333 28.181333-136.512 79.36-182.698667l7.061333-6.378667-0.085333-43.541333c-1.066667-50.922667-79.082667-93.781333-169.429333-143.402667-54.826667-30.122667-111.466667-61.226667-132.074667-86.144-3.008-12.458667-1.557333-25.045333-0.106667-32.490667L97.365333-45.92zM726.592 492l237.781333 0 0-43.413333L726.592 448.586667 726.592 492zM770.133333 340.981333l194.24 0 0-43.392L770.133333 297.589333 770.133333 340.981333zM834.538667 189.408l129.834667 0 0-42.88-129.834667 0L834.538667 189.408z"  horiz-adv-x="1024" />

    
    <glyph glyph-name="faxian" unicode="&#58896;" d="M511.674077-61.300902c-60.165288 0-118.537743 11.783371-173.495426 35.023678-53.073776 22.443152-100.731192 54.567803-141.647067 95.484701-40.916898 40.915875-73.042573 88.574315-95.485725 141.647067-23.239284 54.957683-35.022655 113.330138-35.022655 173.495426s11.783371 118.53672 35.023678 173.494403c22.442128 53.073776 54.567803 100.731192 95.484701 141.647067 40.915875 40.915875 88.573291 73.042573 141.647067 95.485725 54.957683 23.239284 113.330138 35.022655 173.495426 35.022655 60.164265 0 118.535697-11.783371 173.493379-35.022655 53.072753-22.443152 100.731192-54.568826 141.647067-95.485725s73.042573-88.573291 95.486748-141.647067c23.240307-54.957683 35.023678-113.329115 35.023678-173.494403s-11.783371-118.537743-35.023678-173.495426c-22.444175-53.072753-54.56985-100.731192-95.486748-141.647067s-88.574315-73.04155-141.647067-95.484701C630.209774-49.518554 571.838342-61.300902 511.674077-61.300902zM511.674077 783.087371c-219.865523 0-398.739447-178.8729-398.739447-398.738423 0-219.865523 178.873923-398.739447 398.739447-398.739447s398.739447 178.873923 398.739447 398.739447C910.414547 604.214471 731.540623 783.087371 511.674077 783.087371zM373.957529 142.105764l44.520983 267.562848 225.281883 199.889563L583.428308 314.431551 373.957529 142.105764zM462.0294 385.595334 440.767144 257.812019l100.029204 82.291215 28.813233 140.947126L462.0294 385.595334z"  horiz-adv-x="1024" />

    
    <glyph glyph-name="weixin" unicode="&#59039;" d="M512 664.576c183.296 0 331.776-125.952 331.776-280.576S695.296 103.424 512 103.424c-67.584 0-133.12 17.408-189.44 50.176l-16.384 9.216-17.408-6.144-72.704-25.6 24.576 55.296 10.24 22.528-15.36 20.48c-35.84 46.08-55.296 99.328-55.296 154.624 0 154.624 148.48 280.576 331.776 280.576m0 40.96c-205.824 0-372.736-143.36-372.736-321.536 0-66.56 23.552-128 63.488-179.2l-63.488-141.312 162.816 56.32c59.392-34.816 132.096-56.32 209.92-56.32 205.824 0 372.736 143.36 372.736 321.536 0 176.128-166.912 320.512-372.736 320.512z"  horiz-adv-x="1024" />

    
    <glyph glyph-name="weixinsousuo" unicode="&#58938;" d="M697.9 247.79999999999995l259.9-259.9-50.6-50.6-259.9 259.9c-61.7-50.5-140.5-80.7-226.3-80.7-197.5 0-357.6 160.1-357.6 357.6S223.5 831.8 421 831.8s357.6-160.1 357.6-357.6c0-85.9-30.3-164.8-80.7-226.4zM421 188c158 0 286.1 128.1 286.1 286.1S579 760.2 421 760.2s-286.1-128-286.1-286.1S263 188 421 188z"  horiz-adv-x="1024" />

    
    <glyph glyph-name="wo" unicode="&#58883;" d="M512.720992-127.93325100000004H82.38868C27.187063-127.86650199999997 11.300745-111.91343500000005 11.634492-56.378071999999975s22.093996 97.053386 75.426634 121.950851c76.427873 35.577342 151.520761 74.492145 226.480151 112.872955a112.872955 112.872955 0 0 1 33.374617 26.699693c18.623036 21.693501 19.624275 39.115051-2.870217 64.880256a756.135324 756.135324 0 0 0-100.858092 143.911348c-55.268366 105.397041-50.595919 312.453165 65.614497 405.902093C399.647789 892.796037 498.303157 918.360993 603.700198 874.306499c112.605958-47.05821 181.557917-131.829737 187.632097-262.925233 6.674923-136.568933-32.840623-253.647089-122.751842-355.172675-5.339939-6.007431-7.475914-22.69474-3.203963-28.034678 16.220064-20.02477 32.707125-43.520501 54.600874-55.468613 70.019947-38.38081 142.242618-72.756665 214.198292-107.533017 60.074311-29.035917 84.971775-72.956913 76.628121-139.572648-5.139691-40.650284-19.490776-53.399387-61.07555-53.399387q-218.470243-0.266997-437.007235-0.133499z m-433.870022 69.886448h865.670817c1.668731 35.110097-10.212633 58.005084-40.04954 72.689916-82.702301 40.650284-165.271104 81.701063-246.972166 124.420573a160.198162 160.198162 0 0 0-50.59592 41.718271c-27.567434 35.176846-20.02477 78.764096 10.145884 111.204224a475.054299 475.054299 0 0 1 61.0088 82.568802c45.589727 78.096604 47.258458 164.803859 46.056971 252.245356-0.934489 64.079265-27.367186 113.473698-76.361124 151.921257C593.88806 820.9738609999999 532.278517 832.054234 465.529283 824.645069c-103.327814-11.480868-186.897855-101.458836-186.897855-204.519653v-63.411773c0.467245-108.334007 50.796167-193.572779 125.555309-266.596441 29.169415-28.501923 42.185516-55.201617 23.362232-89.377224a157.261195 157.261195 0 0 0-58.939574-59.673815c-81.701063-44.655238-165.805097-85.172023-249.508637-126.156053-29.63666-14.81833-42.652761-37.246073-39.916041-73.023662z"  horiz-adv-x="1024" />

    
    <glyph glyph-name="plus" unicode="&#58884;" d="M927.01220469 428.28945878h-376.33401914v365.10016905c0 16.85077735-16.85077735 39.3184793-39.3184802 39.3184793-22.46770283 0-39.3184793-22.46770283-39.31847928-44.93540567v-365.10016816H106.94105703c-22.46770283 5.61692549-44.93540567-16.85077735-44.93540478-39.31848017s22.46770283-39.3184793 39.31847929-39.3184793h365.10016904v-365.10016816c5.61692549-22.46770283 22.46770283-44.93540567 44.9354048-44.93540567s39.3184793 22.46770283 39.31848017 39.3184793v370.71709453h370.71709365c22.46770283 0 39.3184793 22.46770283 39.31848017 39.3184793s-11.23385095 44.93540567-33.70155468 44.93540566z"  horiz-adv-x="1027" />

    
    <glyph glyph-name="xiaoxi-2" unicode="&#58885;" d="M192.11750205-45.99249745999998c-5.25594998 0-10.51190105 1.59271222-14.97149548 4.69850108-7.7246544 5.25594998-12.10461326 14.09550326-11.54716436 23.41287098l7.16720551 126.54099036C72.34553831 184.87114784000005 15.00789643 292.53849720999995 15.00789643 406.0988832c0 224.97060868 223.05935424 407.97324982 497.32440928 407.97324982 274.5039606 0 497.88185817-183.00264114 497.88185817-407.97324982 0-224.65206646-223.37789646-407.41580092-497.88185817-407.41580092-57.89509078 0-113.40111378 7.80428996-165.16426347 23.1739632l-143.98119026-65.46047406c-3.50396665-1.67234777-7.32647662-2.38906887-11.06934993-2.38906888z"  horiz-adv-x="1024" />

    
    <glyph glyph-name="xiaoxi-1" unicode="&#58887;" d="M225.925915 0.09934399999997368c-4.696253 0-9.392507 1.372751-13.366259 4.190503-6.863755 4.696253-10.765258 12.643759-10.259508 20.880265l6.358005 112.999083C118.995837 206.228745 67.8428 302.321315 67.8428 403.688139c0 200.782897 199.121146 364.140267 443.976575 364.140267 245.072179 0 444.410075-163.35737 444.410075-364.140267 0-200.566147-199.410146-363.706766-444.410075-363.706766-51.731038 0-101.222324 6.936005-147.462358 20.663515l-128.605094-58.378043c-3.106752-1.445001-6.502505-2.167502-9.826008-2.167501z m285.82121 720.260777c-218.62866 0-396.43604-142.043604-396.436041-316.671982 0-89.734566 47.901785-175.278628 131.495097-234.668171 6.647005-4.696253 10.404008-12.499259 9.970507-20.663516l-4.913004-86.627813 101.005574 45.878784c5.346504 2.456502 11.487758 2.817752 17.051013 1.0115 44.000282-14.01651 91.757567-21.169266 141.826854-21.169265 218.84541 0 396.941791 141.826854 396.941791 316.238481 0 174.628378-178.02413 316.671982-396.941791 316.671982z"  horiz-adv-x="1024" />

    
    <glyph glyph-name="jiantou1" unicode="&#58913;" d="M1521.664-128L1638.4-35.84 819.2 896 0-35.84 116.736-128 819.2 670.72z"  horiz-adv-x="1638" />

    
    <glyph glyph-name="jiantou11" unicode="&#58889;" d="M121.00266657 896L4.26666657 803.84 823.46666657-128 1642.66666657 803.84 1525.93066657 896 823.46666657 97.27999999999997z"  horiz-adv-x="1638" />

    
    <glyph glyph-name="info" unicode="&#58926;" d="M512 896C229.376 896 0 666.624 0 384s229.376-512 512-512 512 229.376 512 512c0 283.136-229.376 512-512 512z m0-976.896c-256.512 0-465.408 208.896-465.408 465.408 0 256.512 208.896 465.408 465.408 465.408 256.512 0 465.408-208.896 465.408-465.408S768.512-80.896 512-80.896zM563.2 171.52V472.064s-7.68 39.424-32.256 0c-28.16-44.544-113.664-48.64-113.664-48.64v-32.256h48.64v-219.136l-48.64-16.384v-32.256h194.56v32.256l-48.64 15.872z m-48.64 363.008c28.16 0 51.2 23.04 51.2 51.2s-23.04 51.2-51.2 51.2-51.2-23.04-51.2-51.2 23.04-51.2 51.2-51.2z"  horiz-adv-x="1025" />

    
    <glyph glyph-name="mima" unicode="&#58921;" d="M813.269862-128L210.726144-128C136.831263-128 76.8-68.30115799999999 76.8 5.199769999999944L76.8 404.50048C76.8 477.902285 136.832594 537.5998979999999 210.726144 537.5998979999999L245.471831 537.5998979999999C241.913293 554.200474 239.999416 571.299021 239.999416 588.800256L239.999416 640.000614C239.999416 781.40032 361.762575 896 512.000666 896 662.184115 896 784.000563 781.40032 784.000563 640.000614L784.000563 588.800256C784.000563 571.300301 782.085376 554.200474 778.526822 537.5998979999999L813.269862 537.5998979999999C887.114086 537.5998979999999 947.2 477.901005 947.2 404.50048L947.2 5.199769999999944C947.2-68.30115799999999 887.114086-128 813.269862-128L813.269862-128ZM457.599084 193.199974L457.599084 76.79897600000004C457.599084 48.60032000000001 481.985034 25.599898000000053 512.000666 25.599898000000053 542.014966 25.599898000000053 566.399585 48.60032000000001 566.399585 76.79897600000004L566.399585 193.199974C599.387325 210.80028200000004 621.859395 243.60007700000006 621.859395 281.59923200000003 621.859395 338.199757 572.666332 384 512.000666 384 451.277691 384 402.083292 338.199757 402.083292 281.59923200000003 402.083292 243.60007700000006 424.608676 210.80028200000004 457.599084 193.199974L457.599084 193.199974ZM675.200082 640.000614C675.200082 724.849971 602.154184 793.601741 512.000666 793.601741 421.847148 793.601741 348.798582 724.851251 348.798582 640.000614L348.798582 537.5998979999999 675.200082 537.5998979999999 675.200082 640.000614 675.200082 640.000614Z"  horiz-adv-x="1024" />

    
    <glyph glyph-name="new-yonghu" unicode="&#58905;" d="M678.4 330.24c89.088 57.856 142.336 157.696 139.776 263.68-3.584 159.232-130.56 290.304-289.28 299.008-168.96 9.216-313.344-119.808-322.56-288.768-6.144-110.08 47.104-214.528 139.776-273.92 11.776-7.68 15.36-23.552 7.68-35.328-3.072-4.608-7.168-7.68-11.776-9.728-141.312-58.368-243.2-184.832-270.336-335.872-5.632-34.816 17.92-67.584 52.736-73.728 3.584-0.512 7.168-1.024 10.752-1.024h754.176c35.328 0 64 28.16 64.512 63.488 0 3.584-0.512 7.168-1.024 10.752-26.624 150.528-128.512 277.504-270.336 335.872-12.8 5.12-19.456 20.48-13.824 33.28 1.536 5.12 5.12 9.216 9.728 12.288z"  horiz-adv-x="1024" />

    
    <glyph glyph-name="xiangji" unicode="&#59984;" d="M361.472 694.144a83.2 83.2 0 0 0-56.512-22.144H115.2a19.2 19.2 0 0 1-19.2-19.2v-665.6a19.2 19.2 0 0 1 19.2-19.2h1049.6a19.2 19.2 0 0 1 19.2 19.2V652.8a19.2 19.2 0 0 1-19.2 19.2h-189.76a83.2 83.2 0 0 0-56.512 22.144l-108.8 100.736a19.2 19.2 0 0 1-13.056 5.12H483.328a19.2 19.2 0 0 1-13.056-5.12l-108.8-100.736z m-43.52 46.976L426.88 841.856A83.2 83.2 0 0 0 483.328 864h313.344a83.2 83.2 0 0 0 56.512-22.144l108.8-100.736a19.2 19.2 0 0 1 13.056-5.12H1164.8a83.2 83.2 0 0 0 83.2-83.2v-665.6a83.2 83.2 0 0 0-83.2-83.2H115.2a83.2 83.2 0 0 0-83.2 83.2V652.8a83.2 83.2 0 0 0 83.2 83.2h189.76a19.2 19.2 0 0 1 12.992 5.12zM638.528 85.31200000000001a240 240 0 1 0 0 480 240 240 0 0 0 0-480z m0 64a176 176 0 1 1 0 352 176 176 0 0 1 0-352zM954.048 542.336a32 32 0 1 0 0 64h104.704a32 32 0 1 0 0-64h-104.704z"  horiz-adv-x="1280" />

    
    <glyph glyph-name="zhediejiantou" unicode="&#59058;" d="M712.9 416.7L378.7 750.9c-18.6 18.6-47.5 18.6-67 0-19.6-18.6-18.6-47.5 0-67l300.7-300.7-300.7-300.7c-18.6-19.6-18.6-47.5 0-67s47.5-19.5 67 0l334.2 334.2c18.6 19.5 18.6 47.4 0 67z m0 0"  horiz-adv-x="1024" />

    
    <glyph glyph-name="gantanhao_huabanfuben" unicode="&#58968;" d="M512 832a448 448 0 1 1 448-448 448 448 0 0 1-448 448z m0-832a384 384 0 1 0 384 384 384 384 0 0 0-384-384zM512 480a30.08 30.08 0 0 1-32-32v-288a32 32 0 0 1 64 0V448a30.08 30.08 0 0 1-32 32zM512 592m-48 0a48 48 0 1 1 96 0 48 48 0 1 1-96 0Z"  horiz-adv-x="1024" />

    
    <glyph glyph-name="gantanhao" unicode="&#58888;" d="M0 384a512 512 0 1 0 512-512A512 512 0 0 0 0 384z m510.383158 131.206737a83.267368 83.267368 0 1 1 0 166.426947 83.213474 83.213474 0 1 1 0-166.426947z m2.425263-71.141053a77.312 77.312 0 0 1-77.608421-75.910737V133.389474a77.258105 77.258105 0 0 1 77.608421-75.910737 75.856842 75.856842 0 0 1 75.991579 75.910737v234.873263a75.910737 75.910737 0 0 1-75.991579 75.910737z m0 0"  horiz-adv-x="1024" />

    
    <glyph glyph-name="jiantou" unicode="&#58941;" d="M171.136 555.008h684.032l-342.016-342.016-342.016 342.016z"  horiz-adv-x="1024" />

    
    <glyph glyph-name="jiantouarrow492" unicode="&#59056;" d="M855.16288 213.00224 171.14112 213.00224l342.016 341.99552L855.16288 213.00224z"  horiz-adv-x="1024" />

    
    <glyph glyph-name="jiantou-copy-copy" unicode="&#58984;" d="M927.804 543.807l-415.804-415.632-415.803 415.632 63.616 63.445 352.209-352.017 352.102 352.017z"  horiz-adv-x="1024" />

    
    <glyph glyph-name="shanchu4" unicode="&#58909;" d="M980.151134 582.179681c-26.653233 60.184719-62.764064 113.491184-108.332494 161.638959C826.25021 790.246851 770.3644 826.357683 710.179681 853.010915c-62.764064 26.653233-128.107473 41.269521-197.74979 41.269521-67.922754 0-134.985726-14.616289-197.74979-41.269521-60.184719-26.653233-113.491184-62.764064-161.638959-108.332494C105.753149 698.25021 69.642317 642.3644 42.989085 582.179681c-26.653233-62.764064-41.269521-128.107473-41.269521-197.74979 0-67.922754 14.616289-134.985726 41.269521-197.74979 26.653233-60.184719 62.764064-113.491184 108.332494-161.638959 45.56843-45.56843 101.45424-82.539043 161.638959-108.332494 62.764064-26.653233 128.107473-41.269521 197.74979-41.269521 67.922754 0 134.985726 14.616289 197.74979 41.269521 60.184719 26.653233 113.491184 62.764064 161.638959 108.332494 45.56843 45.56843 82.539043 101.45424 108.332494 161.638959 26.653233 62.764064 41.269521 128.107473 41.269521 197.74979C1021.420655 451.492863 1006.804366 519.415617 980.151134 582.179681zM738.552477 125.6356 514.149454 350.038623 294.04534 130.794291l-33.531486 33.531486 220.104114 220.104114L255.355164 608.832914l33.531486 33.531486 224.403023-224.403023L734.253568 638.065491l33.531486-33.531486L547.68094 384.429891l224.403023-224.403023L738.552477 125.6356z"  horiz-adv-x="1024" />

    
    <glyph glyph-name="xingxing" unicode="&#58923;" d="M778.479-118.496c-12.288 0-24.576 3.071-37.888 10.239l-206.849 108.544c-5.12 3.072-12.288 5.12-20.479 5.12-7.168 0-15.36-2.048-20.48-4.096l-205.824-109.568c-12.288-7.168-24.576-10.239-38.912-10.239-24.576 0-48.128 11.264-64.513 29.695-16.384 18.433-22.527 43.008-18.432 67.584l39.937 229.376c2.048 14.336-3.072 28.672-13.313 38.912l-165.887 160.769c-23.552 22.527-31.744 55.296-21.504 86.016 10.239 30.721 35.84 52.225 67.584 57.345l229.376 33.792c14.336 2.048 27.647 11.264 33.791 23.552l102.4 208.896c14.336 28.672 43.008 46.08 74.752 46.08s60.416-17.408 74.752-46.08l102.4-208.896c7.168-13.313 19.456-21.504 33.792-23.552l229.377-33.793c31.744-5.12 57.344-26.624 67.584-56.32 10.24-30.72 2.048-63.488-20.48-86.017l-164.864-161.791c-11.265-10.24-15.36-24.576-13.313-38.912l38.912-228.352c4.096-24.576-2.048-49.152-18.432-67.584-15.359-19.456-38.911-30.72-63.487-30.72z"  horiz-adv-x="1025" />

    
    <glyph glyph-name="jiantou-you" unicode="&#59162;" d="M766.504 380.928L383.252 764.18c-17.574 17.574-17.574 46.066 0 63.64 17.573 17.573 46.066 17.573 63.64 0l446.891-446.892-446.892-446.891c-17.573-17.574-46.066-17.574-63.64 0-17.573 17.573-17.573 46.066 0 63.64l383.253 383.251z"  horiz-adv-x="1024" />

    
    <glyph glyph-name="jiantou-zuo" unicode="&#59163;" d="M316.28 381.289L699.53 764.54c17.574 17.573 17.574 46.066 0 63.64-17.573 17.573-46.066 17.573-63.64 0L189 381.288l446.891-446.892c17.574-17.573 46.067-17.573 63.64 0 17.574 17.574 17.574 46.066 0 63.64L316.28 381.289z"  horiz-adv-x="1024" />

    
    <glyph glyph-name="centos" unicode="&#58998;" d="M512 896 392.533333 776.533333 469.333333 776.533333l8.533333 0L477.866667 768l0-290.133333 34.133333-34.133333 38.4 38.4L550.4 768 550.4 776.533333l8.533333 0 72.533333 0C631.466667 776.533333 512 896 512 896zM567.466667 759.466667l0-264.533333 170.666667 170.666667-89.6 89.6C648.533333 759.466667 567.466667 759.466667 567.466667 759.466667zM674.133333 759.466667l85.333333-85.333333 4.266667-4.266667-4.266667-4.266667L567.466667 469.333333l0-34.133333 34.133333 0 192 192 4.266667 4.266667 4.266667-4.266667 85.333333-85.333333 0 213.333333C887.466667 759.466667 674.133333 759.466667 674.133333 759.466667zM136.533333 759.466667l0-209.066667 81.066667 81.066667 4.266667 4.266667 4.266667-4.266667 192-192 34.133333 0L452.266667 469.333333 264.533333 661.333333 260.266667 669.866667l4.266667 4.266667 81.066667 81.066667L136.533333 759.466667 136.533333 759.466667zM375.466667 759.466667 285.866667 669.866667l174.933333-174.933333L460.8 759.466667C460.8 759.466667 375.466667 759.466667 375.466667 759.466667zM797.866667 610.133333l-170.666667-170.666667 260.266667 0L887.466667 520.533333C887.466667 520.533333 797.866667 610.133333 797.866667 610.133333zM226.133333 610.133333 136.533333 520.533333l0-85.333333 260.266667 0L226.133333 610.133333zM119.466667 503.466667 0 384l119.466667-119.466667L119.466667 341.333333l0 8.533333L128 349.866667l290.133333 0 34.133333 34.133333-38.4 38.4L128 422.4 119.466667 422.4l0 8.533333C119.466667 430.933333 119.466667 503.466667 119.466667 503.466667zM904.533333 503.466667l0-72.533333 0-8.533333L896 422.4l-290.133333 0L571.733333 384l34.133333-34.133333L896 349.866667l8.533333 0L904.533333 341.333333l0-76.8L1024 384C1024 384 904.533333 503.466667 904.533333 503.466667zM136.533333 332.8l0-85.333333 89.6-89.6 174.933333 174.933333L136.533333 332.8zM426.666667 332.8l-192-192-4.266667-4.266667-4.266667 4.266667-81.066667 81.066667 0-209.066667 209.066667 0-81.066667 81.066667-4.266667 4.266667 4.266667 4.266667 192 192 0 34.133333L426.666667 332.8 426.666667 332.8zM567.466667 332.8l0-38.4 192-192 4.266667-4.266667-4.266667-4.266667-81.066667-81.066667 213.333333 0 0 209.066667-85.333333-85.333333-4.266667-4.266667-4.266667 4.266667L597.333333 332.8 567.466667 332.8 567.466667 332.8zM622.933333 332.8l174.933333-174.933333 89.6 89.6 0 85.333333C887.466667 332.8 622.933333 332.8 622.933333 332.8zM512 324.266667l-34.133333-34.133333L477.866667 0l0-8.533333L469.333333-8.533333 388.266667-8.533333 512-128l119.466667 119.466667-76.8 0-8.533333 0L546.133333 0l0 285.866667C550.4 285.866667 512 324.266667 512 324.266667zM460.8 273.066667l-174.933333-174.933333 85.333333-85.333333 85.333333 0L456.533333 273.066667 460.8 273.066667zM567.466667 268.8l0-260.266667 85.333333 0 85.333333 85.333333L567.466667 268.8z"  horiz-adv-x="1024" />

    
    <glyph glyph-name="linux" unicode="&#59031;" d="M833.828 123.833c-14.708 27.427-28.724 65.173-32.06 95.097-7.064 63.345 7.001 95.581-26.311 157.655-20.001 37.27-47.167 69.818-69.762 105.374-57.008 89.708-35.862 181.666-78.106 273.828-14.677 32.021-39.272 58.288-73.372 69.27-40.023 12.889-88.039 6.905-123.821-15.09-97.955-60.213-26.601-240.65-82.234-332.558-34.997-57.817-72.677-108.993-92.906-175.374-15.962-52.376-11.905-116.451-74.135-139.232-16.782-6.143-41.737-5.268-50.966-23.624-5.79-11.518-1.802-24.689 0.951-36.449 2.356-10.066 3.024-19.861 1.87-30.14-1.651-14.71-7.417-28.869-8.274-43.641-0.878-15.142 8.565-24.551 21.704-30.534 47.398-21.585 113.582-34.279 164.669-43.764 66.028-12.258 59.608 7.377 115.821 23.029 39.692 11.052 88.466 13.955 129.206 6.827 43.073-7.536 72.966-44.046 112.09-48.73 33.22 0 210.129 91.293 212.144 131.077 1.811 35.802-33.736 33.163-46.508 56.979zM561.696 707.388c34.429-24.892-1.788-99.81-14.799-87.114 41.625 32.641-34.982 83.122-29.425 11.704-53.249 11.693-3.247 109.731 44.224 75.41z m-4.039-117.923c1.857-28.37-64.491-48.349-85.296-56.455-79.455 0.65-53.966 82.141 7.617 88.858 11.889 1.296 76.451-13.646 77.679-32.403zM407.938 697.159c42.337 29.134 70.265-43.258 33.357-66.249 16.796 88.043-79.787 11.981-12.48-11.418-26.974-29.286-46.681 59.91-20.877 77.667z m-57.874-731.028c-38.514 10.84-181.601 28.379-200.949 63.937-0.276 0.507-0.351 2.272-0.282 4.883-0.019 0.032-0.042 0.063-0.06 0.095-0.833 1.415-0.113 8.165 1.246 16.547 1.879 19.977 5.394 46.894 6.514 49.347 12.905 28.267 12.771 23.836 21.86 26.291 5.612 3.079 13.887 7.607 27.549 19.429 37.781 32.691 49.648 51.05 71.076 37.382 8.427-2.949 16.297-11.207 25.986-25.067a570.9 570.9 0 0 0 8.53-10.204c16.954-20.727 55.205-71.093 68.786-114.074 13.447-30 13.992-58.501-30.256-68.566z m290.721 232.992c-16.92-43.195-1.196-82.899-35.488-120.646-58.579-64.48-168.292-61.287-220.377-1.598 61.991 24.918-79.397 135.334-84.198 181.037-10.461 99.563 81.484 201.457 102.457 296.773 77.359-82.013 125.198 33.75 189.934-21.718 50.436-43.215 102.409-212.603 87.712-277.829-8.345-37.034-32.364-36.425-40.04-56.019z m103.371-199.109c-159.991-95.734-70.13 147.276-65.785 178.44 11.336-103.265 74.062-18.695 110.579-7.453-17.789-5.477 57.616-96.436 56.788-86.041 3.123-39.223-63.176-61.965-101.582-84.946z"  horiz-adv-x="1024" />

    
    <glyph glyph-name="mac" unicode="&#59212;" d="M563.7 690.1c45.2 54.5 109.9 75 119.7 67.4 9.7-7.4 1.1-75.4-44.1-129.9s-106.7-76.3-119.7-67.4c-13.3 9.1-1.1 75.4 44.1 129.9z m175.5-337.6c-7.8 83 30.8 153.2 70.5 161.4-34.1 32.7-72.5 64.2-131.9 57.8-75.4-8.1-69.1-39.1-145.1-40.1-57-0.8-95 49.4-175.4 45.4-56.2-2.8-77.7-15.2-100.4-29.9-37.5-24.1-80.8-78.9-66.6-249C205.2 119.7 346.7 13.5 426 9.3c54.3-2.9 53.2 38.7 106.7 39.2 59.1 0.6 62.7-36.9 106.7-39.2 53.5-2.9 101.6 12.6 154.5 98 19.3 31 39.6 78.8 42.5 108.3-39.8 1.3-89.8 58.2-97.2 136.9z"  horiz-adv-x="1024" />

    
    <glyph glyph-name="win" unicode="&#58955;" d="M462.3 408.9V773.1L64.5 710.5v-301.6zM512 359.1v-372l447.5-70.5V359.1zM512 408.9h447.5V851.4L512 781zM462.3 359.1H64.5v-301.6l397.8-62.6z"  horiz-adv-x="1024" />

    
    <glyph glyph-name="guanbianniu" unicode="&#59071;" d="M512 477.952L930.048 896 1024 802.048 605.952 384 1024-34.048 930.048-128 512 290.048 93.952-128 0-34.048 418.048 384 512 290.048 93.952-128 0-34.048 418.048 384 0 802.048 93.952 896 512 477.952 930.048 896 1024 802.048 605.952 384 512 477.952z"  horiz-adv-x="1024" />

    
    <glyph glyph-name="triangular" unicode="&#58943;" d="M824.001 560.963c-9.083 9.083-24.049 9.083-33.132 0l-278.991-279.094-279.094 279.094c-9.083 9.083-24.049 9.083-33.132 0-9.083-9.083-9.083-24.049 0-33.132l292.925-292.925c0.723-1.032 1.548-2.064 2.477-2.993 4.645-4.645 10.734-6.915 16.824-6.812 6.09-0.103 12.179 2.168 16.824 6.812 0.929 0.929 1.755 1.961 2.477 2.993l292.822 292.925c9.083 9.083 9.083 24.049 0 33.132z"  horiz-adv-x="1024" />

    
    <glyph glyph-name="tj" unicode="&#58903;" d="M212.67968-89.12896V540.42112c0 25.10336-19.31264 44.416-42.48064 44.416H42.74176c-23.168 0-42.48064-21.23776-42.48064-44.416v-629.54496h212.41856v-0.00512z m270.35648 0V810.7776c0 25.10848-19.30752 46.35136-42.48576 46.35136H313.09312c-23.168 0-42.48064-21.24288-42.48064-46.35136v-899.90144h212.42368v-0.00512z m270.35648 0V308.6848c0 25.10336-19.30752 46.34112-42.48064 46.34112h-127.45216c-23.17312 0-42.49088-21.23776-42.49088-46.34112v-397.81376h212.42368z m270.35136 0V540.42112c0 25.10336-19.30752 44.416-42.48064 44.416H853.8112c-23.17312 0-42.48064-21.23776-42.48064-44.416v-629.54496h212.41344v-0.00512z"  horiz-adv-x="1024" />

    
    <glyph glyph-name="nrgl" unicode="&#58886;" d="M737.5 644V748c0 28.7-23.3 52-52 52H165c-28.7 0-52-23.3-52-52v-728c0-28.7 23.3-52 52-52h572.4V644zM529.3 141.29999999999995H251.8c-19.1 0-34.7 15.6-34.7 34.7s15.6 34.7 34.7 34.7h277.6c19.1 0 34.7-15.6 34.7-34.7-0.1-19.1-15.7-34.7-34.8-34.7z m0 208H251.8c-19.1 0-34.7 15.6-34.7 34.7s15.6 34.7 34.7 34.7h277.6c19.1 0 34.7-15.6 34.7-34.7-0.1-19.1-15.7-34.7-34.8-34.7z m69.4 208h-347c-19.1 0-34.7 15.6-34.7 34.7s15.6 34.7 34.7 34.7h347c19.1 0 34.7-15.6 34.7-34.7s-15.6-34.7-34.7-34.7zM859 626.7h-52V-32h52c28.6 0 52 23.4 52 52V574.7c0 28.6-23.4 52-52 52z"  horiz-adv-x="1024" />

    
    <glyph glyph-name="yh" unicode="&#58890;" d="M730.213994 720.3738069999999a220.618769 220.618769 0 0 0 102.334838-164.238417 176.215751 176.215751 0 0 1 207.120996 43.627284 178.573983 178.573983 0 0 1 17.221297 212.054665A176.432957 176.432957 0 0 1 859.606436 888.7081a177.643102 177.643102 0 0 1-129.392442-168.334293z m-116.298052-365.401776c97.680434 0 176.867368 79.621345 176.867368 177.798249 0 98.207933-79.186934 177.829278-176.867368 177.829278s-176.867368-79.621345-176.867368-177.798249c0-98.207933 79.186934-177.798249 176.867368-177.798248z m75.401351-12.225569h-150.554468c-125.482743-0.124117-227.134935-102.334838-227.259052-228.469198v-188.037938l12.597921-4.033817A1030.423078 1030.423078 0 0 1 633.588558-128c167.124148 0 263.966789 48.002424 269.955456 50.888155l11.69807 6.205872h1.334262v185.183237c-0.124117 126.13436-101.807339 228.37611-227.290082 228.469198z m293.537772 184.252356H833.448683a219.687888 219.687888 0 0 0-66.340777-153.129905c113.815703-34.752886 191.637344-140.25272 191.668374-259.808854v-57.125057c81.917518 0.558529 162.904154 17.655707 238.119329 50.205509l11.915276 6.236902H1210.145147v185.152207c-0.248235 126.072301-101.838369 228.251992-227.259053 228.469198z m-680.442896 12.69101a174.850459 174.850459 0 0 1 94.422351 27.554074 220.929063 220.929063 0 0 0 82.662223 140.68713v10.23969c0 98.176904-79.186934 177.798249-176.867368 177.798249-97.649405 0-176.867368-79.621345-176.867368-177.798249 0-98.207933 79.217963-177.798249 176.867368-177.798248l-0.217206-0.682646z m159.615042-165.386504a220.58774 220.58774 0 0 0-67.64401 152.261083H227.259053c-125.296567-0.124117-226.8867-102.086603-227.259053-228.065816v-188.037938l12.597921-3.971759c83.158692-26.685252 169.296203-42.944638 256.457683-48.467864v56.039029c0.124117 119.959516 78.597376 225.614497 193.002637 259.808854v0.434411z"  horiz-adv-x="1210" />

    
    <glyph glyph-name="zdjt" unicode="&#58893;" d="M281.7024 537.6L230.2976 480.512 512 227.0208l281.7024 253.4912L742.2976 537.6 512 330.3424z"  horiz-adv-x="1024" />

    
    <glyph glyph-name="treejt" unicode="&#58880;" d="M524.53 78.30399999999997c2.435 1.177 4.724 2.749 6.744 4.768l468.51799999 468.519c9.674 9.674 9.674 25.35599999 0 35.029l-74.43699999 74.437c-9.674 9.674-25.35599999 9.674-35.02900001 0l-376.56699999-376.565-376.566 376.566c-9.674 9.674-25.358 9.674-35.03 0l-74.437-74.437c-9.674-9.674-9.67299999-25.357 0.001-35.029l394.078-394.079c0.001-0.001 0.002-0.001 0.002-0.002l74.437-74.437c0.605-0.605 1.233-1.171 1.882-1.7 7.562-6.17 17.909-7.175 26.404-3.07z"  horiz-adv-x="1024" />

    
    <glyph glyph-name="dh" unicode="&#58904;" d="M512-128C229.236364-128 0 101.23636399999998 0 384S229.236364 896 512 896s512-229.236364 512-512-229.236364-512-512-512z m-194.676364 551.377455l-41.634909-51.316364 182.784-185.320727 289.838546 335.639272-48.174546 58.554182L458.472727 298.821818l-141.149091 124.532364z"  horiz-adv-x="1024" />

    


  </font>
</defs>
</svg>
